<mxfile host="app.diagrams.net" modified="2024-01-18T02:24:04.309Z" agent="Mozilla/5.0 (Windows NT 10.0; Win64; x64) AppleWebKit/537.36 (KHTML, like Gecko) Chrome/120.0.0.0 Safari/537.36" etag="uEiFTNyoEsHEsQHSLkf1" version="22.1.21" type="device">
  <diagram id="M_AzXYqvTtqrILJlZ00b" name="Page-2">
    <mxGraphModel dx="981" dy="626" grid="1" gridSize="10" guides="1" tooltips="1" connect="1" arrows="1" fold="1" page="1" pageScale="1" pageWidth="827" pageHeight="1169" math="0" shadow="0">
      <root>
        <mxCell id="0" />
        <mxCell id="1" parent="0" />
        <mxCell id="ZPDHwFt9rdPWEeoM057w-3" value="" style="edgeStyle=orthogonalEdgeStyle;rounded=0;orthogonalLoop=1;jettySize=auto;html=1;" edge="1" parent="1" source="6piVW7B-nzq4YzW6H84q-10" target="ZPDHwFt9rdPWEeoM057w-2">
          <mxGeometry relative="1" as="geometry" />
        </mxCell>
        <mxCell id="6piVW7B-nzq4YzW6H84q-10" value="" style="ellipse;whiteSpace=wrap;html=1;fillColor=#d5e8d4;strokeColor=#82b366;" parent="1" vertex="1">
          <mxGeometry x="370" y="550" width="53" height="50" as="geometry" />
        </mxCell>
        <mxCell id="ZPDHwFt9rdPWEeoM057w-5" value="" style="edgeStyle=orthogonalEdgeStyle;rounded=0;orthogonalLoop=1;jettySize=auto;html=1;" edge="1" parent="1" source="ZPDHwFt9rdPWEeoM057w-2" target="ZPDHwFt9rdPWEeoM057w-28">
          <mxGeometry relative="1" as="geometry">
            <mxPoint x="275" y="740" as="targetPoint" />
          </mxGeometry>
        </mxCell>
        <mxCell id="ZPDHwFt9rdPWEeoM057w-6" value="TAK" style="edgeLabel;html=1;align=center;verticalAlign=middle;resizable=0;points=[];" vertex="1" connectable="0" parent="ZPDHwFt9rdPWEeoM057w-5">
          <mxGeometry x="-0.0752" y="1" relative="1" as="geometry">
            <mxPoint as="offset" />
          </mxGeometry>
        </mxCell>
        <mxCell id="ZPDHwFt9rdPWEeoM057w-8" value="" style="edgeStyle=orthogonalEdgeStyle;rounded=0;orthogonalLoop=1;jettySize=auto;html=1;" edge="1" parent="1" source="ZPDHwFt9rdPWEeoM057w-2" target="ZPDHwFt9rdPWEeoM057w-7">
          <mxGeometry relative="1" as="geometry">
            <Array as="points">
              <mxPoint x="557" y="680" />
            </Array>
          </mxGeometry>
        </mxCell>
        <mxCell id="ZPDHwFt9rdPWEeoM057w-9" value="NIE" style="edgeLabel;html=1;align=center;verticalAlign=middle;resizable=0;points=[];" vertex="1" connectable="0" parent="ZPDHwFt9rdPWEeoM057w-8">
          <mxGeometry x="-0.6177" y="-1" relative="1" as="geometry">
            <mxPoint as="offset" />
          </mxGeometry>
        </mxCell>
        <mxCell id="ZPDHwFt9rdPWEeoM057w-2" value="Czy lista jest pusta" style="rhombus;whiteSpace=wrap;html=1;" vertex="1" parent="1">
          <mxGeometry x="350" y="630" width="93.5" height="100" as="geometry" />
        </mxCell>
        <mxCell id="ZPDHwFt9rdPWEeoM057w-11" value="" style="edgeStyle=orthogonalEdgeStyle;rounded=0;orthogonalLoop=1;jettySize=auto;html=1;" edge="1" parent="1" source="ZPDHwFt9rdPWEeoM057w-24" target="ZPDHwFt9rdPWEeoM057w-10">
          <mxGeometry relative="1" as="geometry">
            <Array as="points" />
          </mxGeometry>
        </mxCell>
        <mxCell id="ZPDHwFt9rdPWEeoM057w-14" value="" style="edgeStyle=orthogonalEdgeStyle;rounded=0;orthogonalLoop=1;jettySize=auto;html=1;" edge="1" parent="1" source="ZPDHwFt9rdPWEeoM057w-7" target="ZPDHwFt9rdPWEeoM057w-13">
          <mxGeometry relative="1" as="geometry" />
        </mxCell>
        <mxCell id="ZPDHwFt9rdPWEeoM057w-22" value="" style="edgeStyle=orthogonalEdgeStyle;rounded=0;orthogonalLoop=1;jettySize=auto;html=1;entryX=0.5;entryY=1;entryDx=0;entryDy=0;" edge="1" parent="1" source="ZPDHwFt9rdPWEeoM057w-7" target="ZPDHwFt9rdPWEeoM057w-16">
          <mxGeometry relative="1" as="geometry">
            <mxPoint x="680" y="780" as="targetPoint" />
            <Array as="points">
              <mxPoint x="659" y="770" />
              <mxPoint x="659" y="730" />
            </Array>
          </mxGeometry>
        </mxCell>
        <mxCell id="ZPDHwFt9rdPWEeoM057w-23" value="TAK" style="edgeLabel;html=1;align=center;verticalAlign=middle;resizable=0;points=[];" vertex="1" connectable="0" parent="ZPDHwFt9rdPWEeoM057w-22">
          <mxGeometry x="-0.4219" y="-1" relative="1" as="geometry">
            <mxPoint as="offset" />
          </mxGeometry>
        </mxCell>
        <mxCell id="ZPDHwFt9rdPWEeoM057w-7" value="Czy jest &lt;br&gt;miejsce na kierunku" style="rhombus;whiteSpace=wrap;html=1;" vertex="1" parent="1">
          <mxGeometry x="510" y="720" width="93.5" height="100" as="geometry" />
        </mxCell>
        <mxCell id="ZPDHwFt9rdPWEeoM057w-10" value="" style="shape=waypoint;sketch=0;size=6;pointerEvents=1;points=[];fillColor=default;resizable=0;rotatable=0;perimeter=centerPerimeter;snapToPoint=1;" vertex="1" parent="1">
          <mxGeometry x="386.75" y="600" width="20" height="20" as="geometry" />
        </mxCell>
        <mxCell id="ZPDHwFt9rdPWEeoM057w-27" value="" style="edgeStyle=orthogonalEdgeStyle;rounded=0;orthogonalLoop=1;jettySize=auto;html=1;entryX=0.5;entryY=1;entryDx=0;entryDy=0;" edge="1" parent="1" source="ZPDHwFt9rdPWEeoM057w-13" target="ZPDHwFt9rdPWEeoM057w-2">
          <mxGeometry relative="1" as="geometry">
            <mxPoint x="395.1300000000001" y="885" as="targetPoint" />
          </mxGeometry>
        </mxCell>
        <mxCell id="ZPDHwFt9rdPWEeoM057w-13" value="Dodaj do listy niezakwalifikowanych" style="shape=parallelogram;perimeter=parallelogramPerimeter;whiteSpace=wrap;html=1;fixedSize=1;" vertex="1" parent="1">
          <mxGeometry x="485.13" y="850" width="143.25" height="70" as="geometry" />
        </mxCell>
        <mxCell id="ZPDHwFt9rdPWEeoM057w-16" value="limit miejsc -= 1" style="shape=parallelogram;perimeter=parallelogramPerimeter;whiteSpace=wrap;html=1;fixedSize=1;" vertex="1" parent="1">
          <mxGeometry x="603.5" y="670" width="110" height="40" as="geometry" />
        </mxCell>
        <mxCell id="ZPDHwFt9rdPWEeoM057w-25" value="" style="edgeStyle=orthogonalEdgeStyle;rounded=0;orthogonalLoop=1;jettySize=auto;html=1;" edge="1" parent="1" source="ZPDHwFt9rdPWEeoM057w-16" target="ZPDHwFt9rdPWEeoM057w-24">
          <mxGeometry relative="1" as="geometry">
            <mxPoint x="659" y="670" as="sourcePoint" />
            <mxPoint x="397" y="610" as="targetPoint" />
            <Array as="points">
              <mxPoint x="659" y="610" />
            </Array>
          </mxGeometry>
        </mxCell>
        <mxCell id="ZPDHwFt9rdPWEeoM057w-24" value="Usuń element&amp;nbsp;&lt;br&gt;z listy" style="shape=parallelogram;perimeter=parallelogramPerimeter;whiteSpace=wrap;html=1;fixedSize=1;" vertex="1" parent="1">
          <mxGeometry x="490" y="585" width="113.5" height="50" as="geometry" />
        </mxCell>
        <mxCell id="ZPDHwFt9rdPWEeoM057w-30" value="" style="edgeStyle=orthogonalEdgeStyle;rounded=0;orthogonalLoop=1;jettySize=auto;html=1;entryX=0.479;entryY=0.65;entryDx=0;entryDy=0;entryPerimeter=0;" edge="1" parent="1" source="ZPDHwFt9rdPWEeoM057w-39" target="ZPDHwFt9rdPWEeoM057w-10">
          <mxGeometry relative="1" as="geometry">
            <mxPoint x="60" y="810" as="targetPoint" />
            <Array as="points">
              <mxPoint x="130" y="610" />
            </Array>
          </mxGeometry>
        </mxCell>
        <mxCell id="ZPDHwFt9rdPWEeoM057w-33" value="" style="edgeStyle=orthogonalEdgeStyle;rounded=0;orthogonalLoop=1;jettySize=auto;html=1;" edge="1" parent="1" source="ZPDHwFt9rdPWEeoM057w-28" target="ZPDHwFt9rdPWEeoM057w-32">
          <mxGeometry relative="1" as="geometry" />
        </mxCell>
        <mxCell id="ZPDHwFt9rdPWEeoM057w-28" value="Czy lista zakwalifikowanych jest pusta" style="rhombus;whiteSpace=wrap;html=1;" vertex="1" parent="1">
          <mxGeometry x="200" y="750" width="120" height="120" as="geometry" />
        </mxCell>
        <mxCell id="ZPDHwFt9rdPWEeoM057w-35" value="" style="edgeStyle=orthogonalEdgeStyle;rounded=0;orthogonalLoop=1;jettySize=auto;html=1;" edge="1" parent="1" source="ZPDHwFt9rdPWEeoM057w-32" target="ZPDHwFt9rdPWEeoM057w-34">
          <mxGeometry relative="1" as="geometry" />
        </mxCell>
        <mxCell id="ZPDHwFt9rdPWEeoM057w-32" value="Usuń wierzchni element stosu dla tego kandydata" style="whiteSpace=wrap;html=1;" vertex="1" parent="1">
          <mxGeometry x="200" y="900" width="120" height="60" as="geometry" />
        </mxCell>
        <mxCell id="ZPDHwFt9rdPWEeoM057w-37" value="" style="edgeStyle=orthogonalEdgeStyle;rounded=0;orthogonalLoop=1;jettySize=auto;html=1;entryX=1;entryY=0.5;entryDx=0;entryDy=0;" edge="1" parent="1" source="ZPDHwFt9rdPWEeoM057w-34" target="ZPDHwFt9rdPWEeoM057w-28">
          <mxGeometry relative="1" as="geometry">
            <mxPoint x="500" y="1035" as="targetPoint" />
            <Array as="points">
              <mxPoint x="370" y="1035" />
              <mxPoint x="370" y="810" />
            </Array>
          </mxGeometry>
        </mxCell>
        <mxCell id="ZPDHwFt9rdPWEeoM057w-34" value="Usuń element z listy niezakwalifikowanych" style="shape=parallelogram;perimeter=parallelogramPerimeter;whiteSpace=wrap;html=1;fixedSize=1;" vertex="1" parent="1">
          <mxGeometry x="180" y="1000" width="160" height="70" as="geometry" />
        </mxCell>
        <mxCell id="ZPDHwFt9rdPWEeoM057w-40" value="" style="edgeStyle=orthogonalEdgeStyle;rounded=0;orthogonalLoop=1;jettySize=auto;html=1;entryX=0.479;entryY=0.65;entryDx=0;entryDy=0;entryPerimeter=0;" edge="1" parent="1" source="ZPDHwFt9rdPWEeoM057w-28" target="ZPDHwFt9rdPWEeoM057w-39">
          <mxGeometry relative="1" as="geometry">
            <mxPoint x="200" y="810" as="sourcePoint" />
            <mxPoint x="397" y="610" as="targetPoint" />
            <Array as="points">
              <mxPoint x="130" y="810" />
            </Array>
          </mxGeometry>
        </mxCell>
        <mxCell id="ZPDHwFt9rdPWEeoM057w-41" value="TAK" style="edgeLabel;html=1;align=center;verticalAlign=middle;resizable=0;points=[];" vertex="1" connectable="0" parent="ZPDHwFt9rdPWEeoM057w-40">
          <mxGeometry x="-0.8845" y="3" relative="1" as="geometry">
            <mxPoint as="offset" />
          </mxGeometry>
        </mxCell>
        <mxCell id="ZPDHwFt9rdPWEeoM057w-39" value="Ustaw limity miejsc zgodnie z limitami odgórnymi" style="rounded=0;whiteSpace=wrap;html=1;" vertex="1" parent="1">
          <mxGeometry x="80" y="585" width="120" height="60" as="geometry" />
        </mxCell>
      </root>
    </mxGraphModel>
  </diagram>
</mxfile>
